<?xml version="1.0" encoding="UTF-8"?>
<svg version="1.1" xmlns="http://www.w3.org/2000/svg" viewBox="0 0 200 200" width="1em" height="1em">
<path d="M0 0 C3.64266187 2.7106655 6.47341262 5.21011893 9 9 C11.24191065 9.17434463 11.24191065 9.17434463 13.75 8.875 C17.29594329 8.78776261 19.63847659 8.83874841 22.5625 10.9375 C25.70120164 14.88099693 26.42535867 18.00429819 26 23 C24.85848113 25.49058663 23.9103944 27.0896056 22 29 C22.09274417 30.81599067 22.25086425 32.62874609 22.4375 34.4375 C23.63802665 47.80125723 22.91923563 58.85485467 16.92578125 71.078125 C14.77133607 77.87780852 18.08344966 84.36960339 20.5625 90.6875 C21.21571981 92.35570323 21.86309476 94.02620986 22.50390625 95.69921875 C22.79080322 96.42971436 23.0777002 97.16020996 23.37329102 97.9128418 C24 100 24 100 24 104 C19.18004731 102.64993954 14.43564182 101.18979228 9.76171875 99.39453125 C9.01849365 99.11432129 8.27526855 98.83411133 7.50952148 98.54541016 C6.02269448 97.98088178 4.5414198 97.40146908 3.06665039 96.80615234 C-0.49072196 95.46900441 -2.3697595 94.85977344 -6.16015625 95.703125 C-7.09730469 96.13109375 -8.03445312 96.5590625 -9 97 C-9.95261719 97.34160156 -10.90523438 97.68320313 -11.88671875 98.03515625 C-12.81097656 98.37417969 -13.73523438 98.71320313 -14.6875 99.0625 C-28.29294756 104.0492823 -42.1082759 103.45628174 -55.5625 98.16015625 C-59.17839336 96.93979224 -62.19888592 96.63390288 -66 96.5 C-70.80389178 96.26983811 -74.01305369 95.76192886 -77.703125 92.57421875 C-81.07504747 88.48119238 -81.99977853 83.92805623 -82.375 78.75 C-82.69574775 74.7850119 -83.83960694 71.70085125 -85.4375 68.0625 C-91.86812629 53.34268491 -91.60093897 37.82677261 -85.78125 22.8671875 C-79.40252295 9.01117486 -67.97842718 -1.48110194 -53.90625 -7.2734375 C-35.25597848 -13.417569 -16.45722294 -10.63026362 0 0 Z M-39.6015625 -3.71484375 C-51.95345995 -1.92294877 -62.60957879 3.81049106 -71 13 C-71 13.66 -71 14.32 -71 15 C-71.66 15 -72.32 15 -73 15 C-82.09089901 26.74024673 -84.71577041 40.52813649 -83 55 C-82.00885508 59.17818851 -80.72592061 63.0704486 -79 67 C-75.85740381 67.20952909 -75.85740381 67.20952909 -72.75 65.5 C-69.03321655 63.85243422 -66.09139838 63.63469657 -62 64 C-60.92105469 64.42667969 -59.84210938 64.85335937 -58.73046875 65.29296875 C-54.67616128 66.069906 -54.67616128 66.069906 -51.39453125 64.2265625 C-50.18441823 63.38199071 -48.99043016 62.51390695 -47.8125 61.625 C-41.453125 57 -41.453125 57 -37 57 C-37.94195788 62.25867988 -41.96469292 64.92316314 -45.87109375 68.2265625 C-49.06390284 71.06060241 -49.06390284 71.06060241 -50.09521484 75.0222168 C-49.79552158 77.02568721 -49.3999763 79.01411766 -49 81 C-49.5234375 83.42578125 -49.5234375 83.42578125 -50.375 85.3125 C-50.65085938 85.94800781 -50.92671875 86.58351563 -51.2109375 87.23828125 C-51.47132812 87.81964844 -51.73171875 88.40101563 -52 89 C-52.33 89.99 -52.66 90.98 -53 92 C-51.50279178 92.48781989 -50.00202636 92.96472363 -48.5 93.4375 C-47.6646875 93.70433594 -46.829375 93.97117187 -45.96875 94.24609375 C-32.91106545 97.56205838 -21.21498427 95.60339861 -9.59375 89.21484375 C-5.61723846 87.35235115 -3.08116345 87.67657924 1 89 C2.0415625 89.32355469 3.083125 89.64710938 4.15625 89.98046875 C7.12296408 90.94049188 10.06477784 91.94821206 13 93 C12.09516618 88.40131515 11.0963607 84.0325919 9.3125 79.6875 C7.79543529 75.42527059 7.79543529 75.42527059 9 72 C9.61875 70.845 10.2375 69.69 10.875 68.5 C16.24656437 57.89410102 17.3598324 46.03714989 15.4375 34.375 C13.9179715 30.80741135 13.68019993 30.4556234 10.375 29 C8.704375 28.505 8.704375 28.505 7 28 C5.66079162 29.11799986 4.32877444 30.24461897 3 31.375 C2.2575 32.00148437 1.515 32.62796875 0.75 33.2734375 C0.1725 33.84320313 -0.405 34.41296875 -1 35 C-1 35.66 -1 36.32 -1 37 C-2.485 36.505 -2.485 36.505 -4 36 C-4.33 35.01 -4.66 34.02 -5 33 C-4.278125 32.62230469 -3.55625 32.24460938 -2.8125 31.85546875 C2.73265251 28.6672273 2.73265251 28.6672273 5.91015625 23.3671875 C6.18448568 18.3167123 5.35419724 14.72768068 2.1875 10.75 C-7.29940643 1.5092608 -19.41439782 -3.96871821 -32.75 -4.375 C-35.04762955 -4.24161701 -37.31364866 -3.96562109 -39.6015625 -3.71484375 Z M14 14 C12.35 15.65 10.7 17.3 9 19 C10.08784968 22.24983135 10.08784968 22.24983135 12 25 C14.9157691 25.41702122 14.9157691 25.41702122 18 25 C20.14782671 23.44202118 20.14782671 23.44202118 21 21 C20.65022176 18.29164947 20.65022176 18.29164947 19 16 C16.47627099 14.63921965 16.47627099 14.63921965 14 14 Z M-71.875 73.1875 C-74.04407554 76.05833527 -74.91095066 77.4380263 -75 81 C-74.15020525 83.75256244 -74.15020525 83.75256244 -73 86 C-72.34 86 -71.68 86 -71 86 C-71 86.66 -71 87.32 -71 88 C-67.97209311 88.66627145 -65.10572128 89.14045976 -62 89 C-58.95524698 86.79086457 -58.95524698 86.79086457 -57 84 C-56.67 83.67 -56.34 83.34 -56 83 C-55.56215458 79.14696032 -55.69414748 77.45877878 -57.875 74.1875 C-60.57944937 71.40350801 -61.42266704 71.06535845 -65.3125 70.625 C-69.10738263 70.68685309 -69.10738263 70.68685309 -71.875 73.1875 Z " fill="#267CAB" transform="translate(131,55)"/>
<path d="M0 0 C1.42119141 -0.00386719 1.42119141 -0.00386719 2.87109375 -0.0078125 C5.26390459 0.11026525 7.27586153 0.44387365 9.5625 1.125 C9.5625 1.785 9.5625 2.445 9.5625 3.125 C10.119375 3.16625 10.67625 3.2075 11.25 3.25 C14.68025488 4.54793428 16.68285271 7.07536817 18.5625 10.125 C20.2888028 14.44683553 20.90390913 18.3680158 21.1875 23 C21.26226562 24.15242188 21.33703125 25.30484375 21.4140625 26.4921875 C21.46304688 27.36101562 21.51203125 28.22984375 21.5625 29.125 C22.11679688 29.32996094 22.67109375 29.53492187 23.2421875 29.74609375 C23.96664062 30.01550781 24.69109375 30.28492187 25.4375 30.5625 C26.15679687 30.82933594 26.87609375 31.09617187 27.6171875 31.37109375 C29.5625 32.125 29.5625 32.125 31.5625 33.125 C31.63660727 38.76665361 31.69108167 44.40802447 31.72729492 50.05004883 C31.7423898 51.96969538 31.76286773 53.8893074 31.78881836 55.80883789 C31.82517109 58.56665564 31.84221912 61.3240178 31.85546875 64.08203125 C31.87095261 64.94149857 31.88643646 65.80096588 31.90238953 66.68647766 C31.90261612 67.48708115 31.90284271 68.28768463 31.90307617 69.11254883 C31.90973801 69.8164827 31.91639984 70.52041656 31.92326355 71.24568176 C31.45292717 73.69579551 30.47034815 74.57159468 28.5625 76.125 C24.91377645 77.56580184 21.04264959 77.23801647 17.171875 77.22265625 C16.46726135 77.2212413 15.76264771 77.21982635 15.03668213 77.21836853 C12.79524416 77.21278933 10.55390757 77.20024073 8.3125 77.1875 C6.78906395 77.18248231 5.26562632 77.17791987 3.7421875 77.17382812 C0.01559228 77.16282674 -3.71094396 77.14557646 -7.4375 77.125 C-7.4375 74.155 -7.4375 71.185 -7.4375 68.125 C2.1325 67.795 11.7025 67.465 21.5625 67.125 C21.5625 58.215 21.5625 49.305 21.5625 40.125 C7.7025 39.795 -6.1575 39.465 -20.4375 39.125 C-20.4375 43.745 -20.4375 48.365 -20.4375 53.125 C-20.7675 54.445 -21.0975 55.765 -21.4375 57.125 C-24.0775 57.455 -26.7175 57.785 -29.4375 58.125 C-30.38077902 53.24623723 -30.71734341 48.51496817 -30.8125 43.5625 C-30.84988281 42.82064453 -30.88726562 42.07878906 -30.92578125 41.31445312 C-30.99115091 37.23611284 -30.75672021 35.56552389 -28.2890625 32.16015625 C-25.20321099 29.95778825 -23.18388351 29.38637559 -19.4375 29.125 C-19.42332031 28.0628125 -19.40914062 27.000625 -19.39453125 25.90625 C-18.97845525 10.99098336 -18.97845525 10.99098336 -13.4375 5.125 C-9.05669019 1.05710518 -5.90604054 -0.01602725 0 0 Z M-6.4375 11.125 C-9.59551615 15.22514507 -9.76780047 18.34428321 -9.625 23.4375 C-9.563125 25.644375 -9.50125 27.85125 -9.4375 30.125 C-2.5075 30.125 4.4225 30.125 11.5625 30.125 C11.98628516 20.67079902 11.98628516 20.67079902 8.5625 12.125 C5.983985 10.02147461 4.35195468 9.22368183 1.0625 8.8125 C-1.84024545 9.17534318 -3.8677036 9.70484936 -6.4375 11.125 Z " fill="#2EA942" transform="translate(95.4375,58.875)"/>
<path d="M0 0 C0.495 1.485 0.495 1.485 1 3 C3.00016466 4.20882096 3.00016466 4.20882096 5 5 C5 5.66 5 6.32 5 7 C5.99 7.33 6.98 7.66 8 8 C10.66966391 12.481853 10.22843548 17.27200952 10.125 22.3125 C10.11597656 23.14845703 10.10695312 23.98441406 10.09765625 24.84570312 C10.07420989 26.89725969 10.03834266 28.94866777 10 31 C12.97851562 30.90234375 12.97851562 30.90234375 15.95703125 30.8046875 C18 31 18 31 21 33 C22.19266647 36.57799942 22.18099866 39.86378323 22.203125 43.58984375 C22.20882507 44.33077774 22.21452515 45.07171173 22.22039795 45.83509827 C22.22983535 47.40103736 22.23637693 48.9669962 22.24023438 50.53295898 C22.24995053 52.92531971 22.28098858 55.31682481 22.3125 57.70898438 C22.31902948 59.23176574 22.32428017 60.75455324 22.328125 62.27734375 C22.3404718 62.99099594 22.3528186 63.70464813 22.36553955 64.43992615 C22.35237845 67.38132216 22.11063266 69.73783002 20.96264648 72.45825195 C17.96032289 74.81671364 14.9191596 74.49409183 11.26953125 74.390625 C10.51911057 74.38496521 9.76868988 74.37930542 8.99552917 74.37347412 C6.60053496 74.35109668 4.20704131 74.30090171 1.8125 74.25 C0.18817266 74.22993659 -1.43617815 74.21168553 -3.06054688 74.1953125 C-7.04094207 74.15122794 -11.02021671 74.08219427 -15 74 C-15 72.35 -15 70.7 -15 69 C-8.51680603 67.81870067 -2.13659398 67.88717329 4.4375 67.9375 C8.253125 67.958125 12.06875 67.97875 16 68 C15.67 57.77 15.34 47.54 15 37 C10.17955078 36.90912109 10.17955078 36.90912109 5.26171875 36.81640625 C2.15402865 36.75462245 -0.95362481 36.69123242 -4.0612793 36.62768555 C-6.2233556 36.58433687 -8.38546613 36.54266175 -10.54760742 36.50268555 C-13.65293702 36.44498156 -16.75809436 36.38128728 -19.86328125 36.31640625 C-20.83211746 36.29969376 -21.80095367 36.28298126 -22.79914856 36.26576233 C-23.6998558 36.24581711 -24.60056305 36.22587189 -25.52856445 36.20532227 C-26.32132278 36.18977798 -27.11408112 36.1742337 -27.93086243 36.15821838 C-30 36 -30 36 -33 35 C-32.34 33.68 -31.68 32.36 -31 31 C-29.35 31 -27.7 31 -26 31 C-25.96261719 29.95199219 -25.92523438 28.90398437 -25.88671875 27.82421875 C-25.82105485 26.44527695 -25.75460765 25.06637229 -25.6875 23.6875 C-25.66494141 22.99720703 -25.64238281 22.30691406 -25.61914062 21.59570312 C-25.3453392 16.44325817 -25.3453392 16.44325817 -23.45703125 14.01953125 C-22.73580078 13.51486328 -22.73580078 13.51486328 -22 13 C-20.17073454 16.65853093 -20.53121884 20.9960388 -20.28125 25.03125 C-20.18711938 27.9264801 -20.18711938 27.9264801 -19 30 C-15.35418313 30.02887512 -11.70839537 30.04675585 -8.0625 30.0625 C-7.02158203 30.07087891 -5.98066406 30.07925781 -4.90820312 30.08789062 C-3.42416992 30.09272461 -3.42416992 30.09272461 -1.91015625 30.09765625 C-0.99371338 30.10289307 -0.07727051 30.10812988 0.86694336 30.11352539 C2.98363023 30.23921211 2.98363023 30.23921211 4 29 C4.80955362 21.06372023 4.2283472 12.95589215 0 6 C-2.037471 5.36547564 -2.037471 5.36547564 -4 5 C-4.33 4.01 -4.66 3.02 -5 2 C-3.68 2 -2.36 2 -1 2 C-0.67 1.34 -0.34 0.68 0 0 Z " fill="#25B23C" transform="translate(104,60)"/>
<path d="M0 0 C3.33655152 0.24715196 4.22536589 1.23073175 6.625 3.6875 C10.59041937 8.37275665 11.26086056 13.9273892 11.625 19.875 C11.69976562 21.02742188 11.77453125 22.17984375 11.8515625 23.3671875 C11.90054688 24.23601562 11.94953125 25.10484375 12 26 C12.55429688 26.20496094 13.10859375 26.40992187 13.6796875 26.62109375 C14.40414062 26.89050781 15.12859375 27.15992187 15.875 27.4375 C16.59429687 27.70433594 17.31359375 27.97117187 18.0546875 28.24609375 C20 29 20 29 22 30 C22.07410727 35.64165361 22.12858167 41.28302447 22.16479492 46.92504883 C22.1798898 48.84469538 22.20036773 50.7643074 22.22631836 52.68383789 C22.26267109 55.44165564 22.27971912 58.1990178 22.29296875 60.95703125 C22.30845261 61.81649857 22.32393646 62.67596588 22.33988953 63.56147766 C22.34011612 64.36208115 22.34034271 65.16268463 22.34057617 65.98754883 C22.34723801 66.6914827 22.35389984 67.39541656 22.36076355 68.12068176 C21.89042717 70.57079551 20.90784815 71.44659468 19 73 C15.35127645 74.44080184 11.48014959 74.11301647 7.609375 74.09765625 C6.90476135 74.0962413 6.20014771 74.09482635 5.47418213 74.09336853 C3.23274416 74.08778933 0.99140757 74.07524073 -1.25 74.0625 C-2.77343605 74.05748231 -4.29687368 74.05291987 -5.8203125 74.04882812 C-9.54690772 74.03782674 -13.27344396 74.02057646 -17 74 C-17 71.03 -17 68.06 -17 65 C-7.43 64.67 2.14 64.34 12 64 C12 55.09 12 46.18 12 37 C-9.78 36.505 -9.78 36.505 -32 36 C-31.67 35.01 -31.34 34.02 -31 33 C-24.60947614 33.11730201 -18.21913192 33.24213771 -11.82885742 33.37231445 C-9.65311047 33.41573507 -7.47732786 33.45740471 -5.30151367 33.49731445 C-2.18136832 33.55484502 0.93859633 33.61858823 4.05859375 33.68359375 C5.03775253 33.70030624 6.01691132 33.71701874 7.02574158 33.73423767 C8.37702904 33.7641555 8.37702904 33.7641555 9.75561523 33.79467773 C10.55281479 33.81022202 11.35001434 33.8257663 12.17137146 33.84178162 C14 34 14 34 15 35 C15.08790975 37.29151417 15.10694038 39.58572524 15.09765625 41.87890625 C15.09515869 43.13517822 15.09266113 44.3914502 15.09008789 45.68579102 C15.08098389 47.29510498 15.07187988 48.90441895 15.0625 50.5625 C15.041875 55.656875 15.02125 60.75125 15 66 C-0.345 66.495 -0.345 66.495 -16 67 C-16 68.65 -16 70.3 -16 72 C-11.19398068 71.93125577 -6.38884258 71.84335728 -1.58349609 71.73754883 C0.05182134 71.70425786 1.68725482 71.67623894 3.32275391 71.65356445 C5.67140243 71.62009372 8.01898337 71.56778564 10.3671875 71.51171875 C11.10057343 71.50532883 11.83395935 71.4989389 12.58956909 71.49235535 C14.87324756 71.46005457 14.87324756 71.46005457 18 71 C20.4416875 67.33746875 20.27276876 64.60654236 20.23046875 60.375 C20.23001053 59.63169434 20.22955231 58.88838867 20.2290802 58.12255859 C20.22606176 56.5523926 20.21818762 54.98222949 20.20581055 53.41210938 C20.18756837 51.00900662 20.18530085 48.60628974 20.18554688 46.203125 C20.1806308 44.67708 20.17480209 43.15103762 20.16796875 41.625 C20.16685593 40.90618652 20.1657431 40.18737305 20.16459656 39.44677734 C20.1352573 36.36196417 19.98316838 33.94950513 19 31 C14.05 30.01 14.05 30.01 9 29 C8.95101562 27.75863281 8.90203125 26.51726562 8.8515625 25.23828125 C8.77650201 23.59633306 8.70095561 21.95440703 8.625 20.3125 C8.5940625 19.49587891 8.563125 18.67925781 8.53125 17.83789062 C8.23690798 10.53004703 8.23690798 10.53004703 4.4921875 4.453125 C3.95851562 4.05609375 3.42484375 3.6590625 2.875 3.25 C1.92625 2.5075 0.9775 1.765 0 1 C0 0.67 0 0.34 0 0 Z " fill="#4A9F57" transform="translate(105,62)"/>
<path d="M0 0 C-2 1 -2 1 -4.484375 0.22265625 C-5.56203125 -0.16019531 -6.6396875 -0.54304688 -7.75 -0.9375 C-17.68266195 -3.95462383 -27.71810004 -3.36312062 -38 -3 C-38 -2.34 -38 -1.68 -38 -1 C-36.83597656 -1.26103516 -36.83597656 -1.26103516 -35.6484375 -1.52734375 C-30.90780079 -2.14149476 -26.38399693 -1.85781579 -21.625 -1.5625 C-20.23474609 -1.48418945 -20.23474609 -1.48418945 -18.81640625 -1.40429688 C-16.54386099 -1.27544122 -14.27184901 -1.14051689 -12 -1 C-12 -0.01 -12 0.98 -12 2 C-13.299375 1.835 -14.59875 1.67 -15.9375 1.5 C-29.18747622 0.07371551 -40.05144428 1.96882426 -52 8 C-52.66773437 8.32742187 -53.33546875 8.65484375 -54.0234375 8.9921875 C-55.35530325 9.64874104 -56.67908166 10.32169058 -58 11 C-56.4958659 6.6970341 -53.75152588 5.39446112 -49.875 3.25 C-48.77929688 2.63640625 -47.68359375 2.0228125 -46.5546875 1.390625 C-45.71164063 0.93171875 -44.86859375 0.4728125 -44 0 C-47.3 0.33 -50.6 0.66 -54 1 C-39.05080717 -10.21189463 -15.83893731 -8.31263377 0 0 Z " fill="#2677A1" transform="translate(124,51)"/>
<path d="M0 0 C10.5387795 0.72681238 16.74456991 6.57250438 24 14 C24 14.66 24 15.32 24 16 C24.66 16 25.32 16 26 16 C26.33 16.99 26.66 17.98 27 19 C27.99 19 28.98 19 30 19 C29.67 19.99 29.34 20.98 29 22 C29.87483915 24.16715557 29.87483915 24.16715557 31 26 C32.98 26 34.96 26 37 26 C38.50930183 22.6136749 38.50930183 22.6136749 39 19 C39.66 19 40.32 19 41 19 C41.31991247 22.51903714 41.37169764 24.42015168 39.4375 27.4375 C37 29 37 29 33.375 28.8125 C30 28 30 28 28 27 C28.825 27.61875 29.65 28.2375 30.5 28.875 C31.325 29.57625 32.15 30.2775 33 31 C33 31.66 33 32.32 33 33 C30.69 32.34 28.38 31.68 26 31 C25.59007812 31.433125 25.18015625 31.86625 24.7578125 32.3125 C23.94957031 33.1478125 23.94957031 33.1478125 23.125 34 C22.59132812 34.556875 22.05765625 35.11375 21.5078125 35.6875 C20 37 20 37 18 37 C18 37.66 18 38.32 18 39 C16.0625 38.6875 16.0625 38.6875 14 38 C13.505 36.515 13.505 36.515 13 35 C14.45365269 33.82750647 15.91307419 32.66216184 17.375 31.5 C18.59316406 30.52546875 18.59316406 30.52546875 19.8359375 29.53125 C22 28 22 28 24 28 C23.20107743 18.20853195 23.20107743 18.20853195 17.5 10.5 C13.69149159 7.30419496 9.70301236 5.11457241 5.19921875 3.04296875 C3 2 3 2 0 0 Z " fill="#27749A" transform="translate(112,53)"/>
<path d="M0 0 C1.92574485 0.70057853 3.82708693 1.46755635 5.72265625 2.24609375 C5.72265625 2.57609375 5.72265625 2.90609375 5.72265625 3.24609375 C-0.04017479 3.7010541 -4.88302678 2.03709227 -10.27734375 0.24609375 C-10.27734375 1.23609375 -10.27734375 2.22609375 -10.27734375 3.24609375 C-9.6740625 3.35566406 -9.07078125 3.46523437 -8.44921875 3.578125 C-7.65 3.73667969 -6.85078125 3.89523438 -6.02734375 4.05859375 C-4.84398437 4.28482422 -4.84398437 4.28482422 -3.63671875 4.515625 C-1.01830266 5.32629356 0.63370137 6.49731272 2.72265625 8.24609375 C2.05621094 8.04371094 1.38976562 7.84132812 0.703125 7.6328125 C-6.29428211 5.88101408 -10.25343657 6.43549412 -16.57421875 9.88671875 C-23.26943257 13.25367599 -29.39432649 13.50812287 -36.71484375 13.37109375 C-37.63716797 13.36207031 -38.55949219 13.35304687 -39.50976562 13.34375 C-41.76590184 13.32037035 -44.02148059 13.28760291 -46.27734375 13.24609375 C-46.27734375 12.91609375 -46.27734375 12.58609375 -46.27734375 12.24609375 C-44.96378906 12.19710937 -43.65023437 12.148125 -42.296875 12.09765625 C-40.5611778 12.02259907 -38.82550172 11.94705252 -37.08984375 11.87109375 C-36.22552734 11.84015625 -35.36121094 11.80921875 -34.47070312 11.77734375 C-29.97951189 11.5708522 -26.37982441 11.23872722 -22.27734375 9.24609375 C-20.67755333 8.69163538 -19.07349073 8.14930619 -17.46484375 7.62109375 C-16.27955078 7.23050781 -16.27955078 7.23050781 -15.0703125 6.83203125 C-14.18279297 6.54199219 -14.18279297 6.54199219 -13.27734375 6.24609375 C-13.27734375 5.91609375 -13.27734375 5.58609375 -13.27734375 5.24609375 C-18.41103496 5.57953633 -18.41103496 5.57953633 -23.15234375 7.27734375 C-26.02580979 8.58730621 -28.38685703 8.4393652 -31.52734375 8.37109375 C-32.605 8.35304687 -33.68265625 8.335 -34.79296875 8.31640625 C-35.6128125 8.29320312 -36.43265625 8.27 -37.27734375 8.24609375 C-33.82246208 6.24140933 -30.50096234 5.63492745 -26.58984375 4.93359375 C-21.98214057 4.01205311 -18.3794533 3.00174218 -14.40234375 0.49609375 C-9.19088356 -2.70206666 -5.58967484 -1.85044124 0 0 Z " fill="#277296" transform="translate(134.27734375,143.75390625)"/>
<path d="M0 0 C3.2542015 2.83430453 4.5206753 4.68607774 5 9 C4.34 9 3.68 9 3 9 C3.66 10.32 4.32 11.64 5 13 C4.34 13 3.68 13 3 13 C2.67 14.32 2.34 15.64 2 17 C0.24859857 16.54705135 -1.50107344 16.08741252 -3.25 15.625 C-4.22453125 15.36976563 -5.1990625 15.11453125 -6.203125 14.8515625 C-9 14 -9 14 -11.09375 12.9375 C-14.26922516 11.3757909 -17.50173373 11.34982663 -21 11 C-20.67 9.68 -20.34 8.36 -20 7 C-12.25 7.875 -12.25 7.875 -10 9 C-8.29636178 9.22622081 -6.58671299 9.40888473 -4.875 9.5625 C-3.26625 9.706875 -1.6575 9.85125 0 10 C0 6.7 0 3.4 0 0 Z " fill="#2181B0" transform="translate(144,137)"/>
<path d="M0 0 C3.33655152 0.24715196 4.22536589 1.23073175 6.625 3.6875 C10.59041937 8.37275665 11.26086056 13.9273892 11.625 19.875 C11.69976562 21.02742188 11.77453125 22.17984375 11.8515625 23.3671875 C11.90054688 24.23601562 11.94953125 25.10484375 12 26 C12.55429688 26.20496094 13.10859375 26.40992187 13.6796875 26.62109375 C14.40414062 26.89050781 15.12859375 27.15992187 15.875 27.4375 C16.59429687 27.70433594 17.31359375 27.97117187 18.0546875 28.24609375 C20 29 20 29 22 30 C22.07410727 35.64165361 22.12858167 41.28302447 22.16479492 46.92504883 C22.1798898 48.84469538 22.20036773 50.7643074 22.22631836 52.68383789 C22.26267109 55.44165564 22.27971912 58.1990178 22.29296875 60.95703125 C22.30845261 61.81649857 22.32393646 62.67596588 22.33988953 63.56147766 C22.34011612 64.36208115 22.34034271 65.16268463 22.34057617 65.98754883 C22.34723801 66.6914827 22.35389984 67.39541656 22.36076355 68.12068176 C21.8965321 70.53899323 20.84835389 71.43850535 19 73 C18.34 72.67 17.68 72.34 17 72 C17.48823242 71.49927979 17.97646484 70.99855957 18.47949219 70.48266602 C20.54013434 67.11807544 20.39427487 64.10084404 20.328125 60.27734375 C20.32625183 59.53545303 20.32437866 58.79356232 20.32244873 58.02919006 C20.31574157 56.46497078 20.30185353 54.90076789 20.28125 53.33666992 C20.25006365 50.94238696 20.24027331 48.54876296 20.234375 46.15429688 C20.22520546 44.63280447 20.21482985 43.11131876 20.203125 41.58984375 C20.19887512 40.87416733 20.19462524 40.15849091 20.19024658 39.42112732 C20.14604815 36.35005456 19.97866613 33.9359984 19 31 C15.7 30.34 12.4 29.68 9 29 C8.95101562 27.75863281 8.90203125 26.51726562 8.8515625 25.23828125 C8.77650201 23.59633306 8.70095561 21.95440703 8.625 20.3125 C8.5940625 19.49587891 8.563125 18.67925781 8.53125 17.83789062 C8.23690798 10.53004703 8.23690798 10.53004703 4.4921875 4.453125 C3.69167969 3.85757813 3.69167969 3.85757813 2.875 3.25 C1.92625 2.5075 0.9775 1.765 0 1 C0 0.67 0 0.34 0 0 Z " fill="#428F4E" transform="translate(105,62)"/>
<path d="M0 0 C1.485 0.99 1.485 0.99 3 2 C3.66 2 4.32 2 5 2 C5 2.66 5 3.32 5 4 C6.22976562 3.89171875 6.22976562 3.89171875 7.484375 3.78125 C9.10085937 3.64203125 9.10085937 3.64203125 10.75 3.5 C12.35101563 3.36078125 12.35101563 3.36078125 13.984375 3.21875 C16.3179218 3.04947717 18.66032182 3 21 3 C21.33 3.99 21.66 4.98 22 6 C25.51190809 7.22969878 25.51190809 7.22969878 29 8 C28.01 9.485 28.01 9.485 27 11 C24.08477446 11.31687234 21.92413591 11.52224424 19.3203125 10.05078125 C15.92911033 8.51503481 12.41253225 8.26972521 8.75 7.875 C8.00492188 7.78863281 7.25984375 7.70226562 6.4921875 7.61328125 C4.66222154 7.40213133 2.83120121 7.20015455 1 7 C0.34 5.02 -0.32 3.04 -1 1 C-0.67 0.67 -0.34 0.34 0 0 Z " fill="#2486BC" transform="translate(55,141)"/>
<path d="M0 0 C3.30677248 2.31220681 6.26628869 5.00126919 7.6796875 8.8515625 C8.09333234 11.62600958 8.17027018 14.3199845 8.1875 17.125 C8.20167969 18.17945312 8.21585938 19.23390625 8.23046875 20.3203125 C8 23 8 23 6 25 C3.75341797 25.22705078 3.75341797 25.22705078 0.9921875 25.1953125 C0.00605469 25.18886719 -0.98007813 25.18242188 -1.99609375 25.17578125 C-3.54490234 25.15064453 -3.54490234 25.15064453 -5.125 25.125 C-6.16527344 25.11597656 -7.20554687 25.10695313 -8.27734375 25.09765625 C-10.85179092 25.07403747 -13.42578212 25.04110149 -16 25 C-14 23 -14 23 -11.93701172 22.77294922 C-11.10959473 22.78342285 -10.28217773 22.79389648 -9.4296875 22.8046875 C-8.53378906 22.81113281 -7.63789062 22.81757812 -6.71484375 22.82421875 C-5.30912109 22.84935547 -5.30912109 22.84935547 -3.875 22.875 C-2.93011719 22.88402344 -1.98523438 22.89304687 -1.01171875 22.90234375 C1.32577292 22.92595478 3.66276123 22.95888484 6 23 C5.74424607 20.58086872 5.47106619 18.16589461 5.1875 15.75 C5.11724609 15.06808594 5.04699219 14.38617188 4.97460938 13.68359375 C4.48922089 9.68399266 3.99303665 6.81079086 1 4 C-3.68373923 3.01792565 -7.34310626 2.69024864 -12 4 C-12 3.34 -12 2.68 -12 2 C-8.31745451 -0.45503033 -4.25896904 -1.05286781 0 0 Z " fill="#479E52" transform="translate(101,66)"/>
<path d="M0 0 C2.99087789 0.99833347 5.93869408 2.06100565 8.87548828 3.20947266 C9.37048828 5.68447266 9.37048828 5.68447266 9.87548828 8.20947266 C5.58548828 6.88947266 1.29548828 5.56947266 -3.12451172 4.20947266 C-3.12451172 3.21947266 -3.12451172 2.22947266 -3.12451172 1.20947266 C-11.70451172 1.20947266 -20.28451172 1.20947266 -29.12451172 1.20947266 C-29.12451172 0.54947266 -29.12451172 -0.11052734 -29.12451172 -0.79052734 C-21.39391436 -4.65582602 -7.9478519 -2.38729858 0 0 Z " fill="#2387BA" transform="translate(115.12451171875,48.79052734375)"/>
<path d="M0 0 C1.25 2.5625 1.25 2.5625 2 5 C0.9790625 4.2575 0.9790625 4.2575 -0.0625 3.5 C-3.70766131 1.63864103 -5.9540572 1.48506183 -10 2 C-12.72851266 3.93868005 -13.75701849 5.27105547 -14.8125 8.4375 C-15.01233434 11.16856936 -14.67970736 13.3566936 -14 16 C-13.34 16 -12.68 16 -12 16 C-12 16.66 -12 17.32 -12 18 C-12.99 18.33 -13.98 18.66 -15 19 C-15.66 18.34 -16.32 17.68 -17 17 C-16.67 18.98 -16.34 20.96 -16 23 C-17.8125 22.5 -17.8125 22.5 -20 21 C-22.85017844 15.08851879 -23.61321538 9.50865146 -24 3 C-23.01 3.33 -22.02 3.66 -21 4 C-21 7.63 -21 11.26 -21 15 C-20.01 14.67 -19.02 14.34 -18 14 C-17.90203125 13.32453125 -17.8040625 12.6490625 -17.703125 11.953125 C-16.50287096 4.79298882 -16.50287096 4.79298882 -14.375 1.4375 C-10.45621357 -0.93439705 -4.23156671 -2.27853592 0 0 Z " fill="#217092" transform="translate(72,125)"/>
<path d="M0 0 C0 0.99 0 1.98 0 3 C-0.59167969 3.19335938 -1.18335937 3.38671875 -1.79296875 3.5859375 C-2.58316406 3.84632813 -3.37335938 4.10671875 -4.1875 4.375 C-4.96480469 4.63023437 -5.74210937 4.88546875 -6.54296875 5.1484375 C-9.0008129 5.94338018 -9.0008129 5.94338018 -11.21875 7.09375 C-15.25624519 8.40933832 -19.09758748 8.21149386 -23.3125 8.125 C-24.14845703 8.11597656 -24.98441406 8.10695312 -25.84570312 8.09765625 C-27.89725969 8.07420989 -29.94866777 8.03834266 -32 8 C-32 7.67 -32 7.34 -32 7 C-30.35 7 -28.7 7 -27 7 C-27 6.34 -27 5.68 -27 5 C-25.99839844 4.89042969 -24.99679688 4.78085938 -23.96484375 4.66796875 C-16.1992613 3.76091127 -7.38934202 -0.67175837 0 0 Z " fill="#2784B5" transform="translate(121,148)"/>
<path d="M0 0 C0.99 0 1.98 0 3 0 C3 0.66 3 1.32 3 2 C4.65 2.33 6.3 2.66 8 3 C9.16691444 6.48419134 8.85285758 9.10222787 8.1875 12.6875 C8.01605469 13.66074219 7.84460937 14.63398438 7.66796875 15.63671875 C7.44753906 16.41660156 7.22710937 17.19648438 7 18 C6.34 18.33 5.68 18.66 5 19 C4.34 18.67 3.68 18.34 3 18 C2.29396596 14.25801961 2 10.81207261 2 7 C1.34 6.67 0.68 6.34 0 6 C0 4.02 0 2.04 0 0 Z " fill="#2385B9" transform="translate(48,122)"/>
<path d="M0 0 C-0.95395536 5.27747032 -4.94096141 7.99186359 -8.78320312 11.40234375 C-12.32135891 14.69585346 -12.32135891 14.69585346 -13.37109375 19.3828125 C-13.24863281 20.24648437 -13.12617187 21.11015625 -13 22 C-15.18038095 18.72942857 -15.63246755 17.79480531 -15 14 C-12.43879574 10.95424358 -10.79480342 9.26493447 -7 8 C-7 7.01 -7 6.02 -7 5 C-9.31 5.33 -11.62 5.66 -14 6 C-9.7384399 1.42276879 -6.43766663 -2.02326665 0 0 Z " fill="#28789C" transform="translate(95,112)"/>
<path d="M0 0 C0 7.66666667 0 15.33333333 0 23 C1.32 22.67 2.64 22.34 4 22 C4.33 17.38 4.66 12.76 5 8 C5.66 8.33 6.32 8.66 7 9 C7.02712153 10.916588 7.04645097 12.8332873 7.0625 14.75 C7.07410156 15.81734375 7.08570312 16.8846875 7.09765625 17.984375 C7.01510087 20.53368501 6.74617558 22.57933591 6 25 C2.04 25.495 2.04 25.495 -2 26 C-2.9724392 21.06722372 -3.21543997 16.31938409 -3.25 11.3125 C-3.270625 10.55388672 -3.29125 9.79527344 -3.3125 9.01367188 C-3.35165342 3.46856912 -3.35165342 3.46856912 -1.484375 0.98046875 C-0.74960938 0.49513672 -0.74960938 0.49513672 0 0 Z " fill="#469B56" transform="translate(68,91)"/>
<path d="M0 0 C6.625 -0.25 6.625 -0.25 10 2 C11.21077701 5.63233102 11.12444164 8.95121987 11.09765625 12.73046875 C11.0962413 13.48088943 11.09482635 14.23131012 11.09336853 15.00447083 C11.0877756 17.3988546 11.07522444 19.79314453 11.0625 22.1875 C11.05748408 23.81184761 11.05292134 25.43619668 11.04882812 27.06054688 C11.03780848 31.04040069 11.02054873 35.02018444 11 39 C10.01 39.495 10.01 39.495 9 40 C8.02169967 27.64895828 7.89199269 15.38483845 8 3 C5.36 2.34 2.72 1.68 0 1 C0 0.67 0 0.34 0 0 Z " fill="#31AB41" transform="translate(115,91)"/>
<path d="M0 0 C3.74765815 1.33560158 6.6163817 2.9926468 9.75 5.4375 C10.52859375 6.03433594 11.3071875 6.63117187 12.109375 7.24609375 C14 9 14 9 15 12 C13.68 11.67 12.36 11.34 11 11 C11.99 12.32 12.98 13.64 14 15 C13.34 15.66 12.68 16.32 12 17 C11.54109375 16.45730469 11.0821875 15.91460937 10.609375 15.35546875 C9.99578125 14.64003906 9.3821875 13.92460938 8.75 13.1875 C8.14671875 12.47980469 7.5434375 11.77210937 6.921875 11.04296875 C5.07341206 8.9453824 5.07341206 8.9453824 2.8125 7.4375 C1 6 1 6 0.25 2.8125 C0.12625 1.4203125 0.12625 1.4203125 0 0 Z " fill="#2685BC" transform="translate(124,52)"/>
<path d="M0 0 C-0.99902344 0.62648437 -1.99804688 1.25296875 -3.02734375 1.8984375 C-4.33089007 2.72370423 -5.63426674 3.54923898 -6.9375 4.375 C-7.59685547 4.7875 -8.25621094 5.2 -8.93554688 5.625 C-12.54530401 7.74532264 -12.54530401 7.74532264 -15 11 C-17.9375 12.6875 -17.9375 12.6875 -21 14 C-21.66 13.67 -22.32 13.34 -23 13 C-22.67 12.01 -22.34 11.02 -22 10 C-21.34 10 -20.68 10 -20 10 C-19.67 9.01 -19.34 8.02 -19 7 C-14.66666667 4 -14.66666667 4 -12 4 C-11.67 3.01 -11.34 2.02 -11 1 C-9.2578125 0.234375 -9.2578125 0.234375 -7.125 -0.25 C-6.07699219 -0.50523438 -6.07699219 -0.50523438 -5.0078125 -0.765625 C-3 -1 -3 -1 0 0 Z " fill="#2587B8" transform="translate(81,51)"/>
<path d="M0 0 C-0.66 0.33 -1.32 0.66 -2 1 C-3.8020815 0.38382437 -5.59119547 -0.27025826 -7.375 -0.9375 C-19.16427384 -4.54115408 -31.80750995 -3.32959528 -44 -3 C-32.18813611 -10.87457592 -11.59615734 -6.08592655 0 0 Z " fill="#2A7495" transform="translate(124,51)"/>
<path d="M0 0 C0.66 0 1.32 0 2 0 C4.0657457 7.10100083 5.44971359 13.55693023 2.5 20.5625 C2.005 21.366875 1.51 22.17125 1 23 C1.515625 22.814375 2.03125 22.62875 2.5625 22.4375 C5.85908739 21.84580483 8.72245735 22.432733 12 23 C12 23.33 12 23.66 12 24 C1.44 24 -9.12 24 -20 24 C-20 23.67 -20 23.34 -20 23 C-14.39 23 -8.78 23 -3 23 C-3 21.68 -3 20.36 -3 19 C-1.68 18.34 -0.36 17.68 1 17 C1.02721176 15.10424749 1.04649136 13.20838021 1.0625 11.3125 C1.07990234 9.72888672 1.07990234 9.72888672 1.09765625 8.11328125 C1.00865425 5.27589738 0.64939838 2.7561081 0 0 Z " fill="#2BAE40" transform="translate(107,72)"/>
<path d="M0 0 C1.77706209 2.66559313 2.87548273 5.0280615 4 8 C4.85271484 7.566875 4.85271484 7.566875 5.72265625 7.125 C10.65504825 4.75349934 14.40669988 3.32880399 20 4 C20.99 4.66 21.98 5.32 23 6 C21.948125 6.02126953 21.948125 6.02126953 20.875 6.04296875 C13.949804 6.3911104 9.48678858 7.73948508 4 12 C4 11.34 4 10.68 4 10 C3.34 10 2.68 10 2 10 C2 9.34 2 8.68 2 8 C1.01 8 0.02 8 -1 8 C-1 9.65 -1 11.3 -1 13 C-3.83374881 9.79663178 -4.5205537 7.21912747 -5 3 C-4.566875 3.474375 -4.13375 3.94875 -3.6875 4.4375 C-1.97690387 6.23686957 -1.97690387 6.23686957 1 7 C0.67 4.69 0.34 2.38 0 0 Z " fill="#29759D" transform="translate(49,114)"/>
<path d="M0 0 C0.66 0.33 1.32 0.66 2 1 C2.484375 3.87109375 2.484375 3.87109375 2.75 7.4375 C2.89695312 9.19900391 2.89695312 9.19900391 3.046875 10.99609375 C3 14 3 14 1 16 C-1.79736328 16.22705078 -1.79736328 16.22705078 -5.3203125 16.1953125 C-7.20556641 16.18564453 -7.20556641 16.18564453 -9.12890625 16.17578125 C-10.44761719 16.15902344 -11.76632813 16.14226562 -13.125 16.125 C-14.46483721 16.11496983 -15.80468152 16.10584404 -17.14453125 16.09765625 C-20.42986573 16.07402075 -23.71484465 16.04107234 -27 16 C-27 15.67 -27 15.34 -27 15 C-14.625 14.505 -14.625 14.505 -2 14 C-2 13.01 -2 12.02 -2 11 C-1.87244857 9.47752438 -1.72517393 7.95662428 -1.5625 6.4375 C-1.48128906 5.65246094 -1.40007812 4.86742188 -1.31640625 4.05859375 C-1 2 -1 2 0 0 Z " fill="#24AB38" transform="translate(122,118)"/>
<path d="M0 0 C1.5711696 2.44467184 2.07595875 3.55888177 1.57421875 6.47265625 C1.28160156 7.32730469 0.98898438 8.18195313 0.6875 9.0625 C0.40261719 9.91972656 0.11773437 10.77695313 -0.17578125 11.66015625 C-0.44777344 12.43230469 -0.71976563 13.20445312 -1 14 C-1.33 14.99 -1.66 15.98 -2 17 C-3.5 15.6875 -3.5 15.6875 -5 14 C-5 13.01 -5 12.02 -5 11 C-5.66 10.67 -6.32 10.34 -7 10 C-6.0409375 8.6078125 -6.0409375 8.6078125 -5.0625 7.1875 C-2.91377907 4.15780057 -2.91377907 4.15780057 -2 1 C-1.34 0.67 -0.68 0.34 0 0 Z " fill="#247DAD" transform="translate(145,118)"/>
<path d="M0 0 C0.33 0 0.66 0 1 0 C1.04898438 1.30195312 1.09796875 2.60390625 1.1484375 3.9453125 C1.22350629 5.67189471 1.29905233 7.39845622 1.375 9.125 C1.4059375 9.9809375 1.436875 10.836875 1.46875 11.71875 C1.68985782 16.50941953 2.26631721 20.47551076 4 25 C4 25.66 4 26.32 4 27 C2.1875 26.9375 2.1875 26.9375 0 26 C-2.19302649 21.92723652 -3.4217962 18.63975825 -3 14 C-2.34 14 -1.68 14 -1 14 C-0.67 9.38 -0.34 4.76 0 0 Z " fill="#217EB1" transform="translate(46,94)"/>
<path d="M0 0 C-0.32742187 0.66386719 -0.65484375 1.32773438 -0.9921875 2.01171875 C-2.22423374 5.66487912 -2.21959396 9.01055042 -2.125 12.8125 C-2.11146484 13.85180664 -2.11146484 13.85180664 -2.09765625 14.91210938 C-2.07426157 16.60822395 -2.03839641 18.30415871 -2 20 C-2.99 20 -3.98 20 -5 20 C-6.52106634 16.95786733 -6.37429338 13.71952428 -6.5625 10.375 C-6.60568359 9.66859375 -6.64886719 8.9621875 -6.69335938 8.234375 C-6.79944751 6.48981463 -6.90022889 4.74493303 -7 3 C-2.25 0 -2.25 0 0 0 Z " fill="#3DA34A" transform="translate(89,70)"/>
<path d="M0 0 C0.33 0.66 0.66 1.32 1 2 C3.12164448 2.20206138 5.24363792 2.40108571 7.3671875 2.58203125 C11.85312037 3.29418973 15.8773393 5.14953643 20 7 C20 7.66 20 8.32 20 9 C18.20763933 8.52343588 16.41613103 8.04366502 14.625 7.5625 C13.62726563 7.29566406 12.62953125 7.02882812 11.6015625 6.75390625 C9 6 9 6 7 5 C3.69024552 4.76201499 0.38164265 4.61732114 -2.93359375 4.4765625 C-6 4 -6 4 -9 1 C-6.03 1.33 -3.06 1.66 0 2 C0 1.34 0 0.68 0 0 Z " fill="#26719C" transform="translate(65,147)"/>
<path d="M0 0 C0.33 0.66 0.66 1.32 1 2 C1.66 2.33 2.32 2.66 3 3 C2.96447021 3.60996826 2.92894043 4.21993652 2.89233398 4.84838867 C2.73415389 7.62776346 2.58573811 10.40757796 2.4375 13.1875 C2.38142578 14.14720703 2.32535156 15.10691406 2.26757812 16.09570312 C2.21923828 17.02705078 2.17089844 17.95839844 2.12109375 18.91796875 C2.0739624 19.77156982 2.02683105 20.6251709 1.97827148 21.50463867 C1.90886843 24.04535211 1.90886843 24.04535211 2.61743164 26.63012695 C3 29 3 29 1 32 C0.01 32.66 -0.98 33.32 -2 34 C-1.855625 33.28457031 -1.71125 32.56914063 -1.5625 31.83203125 C0.15612005 22.60638336 0.70317328 13.57601363 -0.5625 4.25 C-0.706875 3.1775 -0.85125 2.105 -1 1 C-0.67 0.67 -0.34 0.34 0 0 Z " fill="#2E7A9F" transform="translate(146,85)"/>
<path d="M0 0 C0.66 0 1.32 0 2 0 C1.80664062 0.56847656 1.61328125 1.13695313 1.4140625 1.72265625 C1.02347656 2.88087891 1.02347656 2.88087891 0.625 4.0625 C0.36976562 4.81660156 0.11453125 5.57070312 -0.1484375 6.34765625 C-0.56996094 7.66056641 -0.56996094 7.66056641 -1 9 C-1.3609375 10.0209375 -1.721875 11.041875 -2.09375 12.09375 C-3.51443977 17.12337318 -3.21265342 22.25583443 -3.125 27.4375 C-3.11597656 28.45521484 -3.10695312 29.47292969 -3.09765625 30.52148438 C-3.07424698 33.01457156 -3.041457 35.50715859 -3 38 C-3.66 37.67 -4.32 37.34 -5 37 C-5.05898369 33.54174064 -5.09392131 30.0836138 -5.125 26.625 C-5.14175781 25.65949219 -5.15851562 24.69398437 -5.17578125 23.69921875 C-5.22933489 15.71972605 -5.21573087 6.51966358 0 0 Z " fill="#2C7295" transform="translate(52,76)"/>
<path d="M0 0 C0 3 0 3 -1.0625 4.75 C-4.07262035 6.69201313 -6.57807033 5.60033854 -10 5 C-12.32158065 5.34659295 -12.32158065 5.34659295 -14 6 C-14.33 5.01 -14.66 4.02 -15 3 C-14.29875 2.87625 -13.5975 2.7525 -12.875 2.625 C-9.93533752 2.04595831 -9.93533752 2.04595831 -6.9375 0.9375 C-4 0 -4 0 0 0 Z " fill="#2386B7" transform="translate(88,117)"/>
<path d="M0 0 C0.33 0 0.66 0 1 0 C1.05437607 1.58294782 1.09296271 3.16644256 1.125 4.75 C1.14820313 5.63171875 1.17140625 6.5134375 1.1953125 7.421875 C0.98788931 10.15986115 0.23733312 11.59273712 -1 14 C-1.77448492 21.24602837 -0.69476158 28.77944214 0 36 C-4.80366402 28.79450397 -3.80264053 17.45652154 -2.328125 9.26953125 C-1.60939743 6.16069548 -0.84589892 3.07645381 0 0 Z " fill="#2B6A8E" transform="translate(44,81)"/>
<path d="M0 0 C10.8627604 0.74915589 16.23160231 6.81499977 24 14 C23.67 14.99 23.34 15.98 23 17 C22.236875 15.989375 21.47375 14.97875 20.6875 13.9375 C15.23202219 7.56197724 7.9721934 3.40338184 0 1 C0 0.67 0 0.34 0 0 Z " fill="#31789D" transform="translate(112,53)"/>
<path d="M0 0 C8.57142857 0.71428571 8.57142857 0.71428571 12 4 C7.38926889 5.29676812 3.66159911 4.71109139 -1 4 C-0.67 2.68 -0.34 1.36 0 0 Z " fill="#2186B9" transform="translate(124,144)"/>
<path d="M0 0 C0.33 0.66 0.66 1.32 1 2 C0.0390625 3.7421875 0.0390625 3.7421875 -1.375 5.875 C-4.62657419 11.39637113 -4.8827238 16.69906949 -5 23 C-5.33 23 -5.66 23 -6 23 C-6.64224138 7.18183269 -6.64224138 7.18183269 -1.3125 1.0625 C-0.6628125 0.5365625 -0.6628125 0.5365625 0 0 Z " fill="#2FAA44" transform="translate(84,65)"/>
<path d="M0 0 C0.99 0.66 1.98 1.32 3 2 C2.26394531 2.03738281 1.52789062 2.07476562 0.76953125 2.11328125 C-6.57560617 2.58975994 -6.57560617 2.58975994 -13 6 C-13.66 6 -14.32 6 -15 6 C-14 3 -14 3 -10.875 1.3125 C-7.17405476 -0.1343716 -3.98086071 -0.38277507 0 0 Z " fill="#24718F" transform="translate(69,118)"/>
<path d="M0 0 C1.65 0.33 3.3 0.66 5 1 C4.65120368 4.25543229 3.97866739 5.01873107 1.4375 7.25 C0.2309375 8.11625 0.2309375 8.11625 -1 9 C-0.67 7.68 -0.34 6.36 0 5 C-0.99 4.67 -1.98 4.34 -3 4 C-2.01 4 -1.02 4 0 4 C0 2.68 0 1.36 0 0 Z " fill="#32739B" transform="translate(90,111)"/>
<path d="M0 0 C1.24316491 3.59136531 0.65507975 6.31517639 0 10 C0.33 10.33 0.66 10.66 1 11 C1.04063832 12.66617115 1.042721 14.33388095 1 16 C-0.32 15.34 -1.64 14.68 -3 14 C-2.69249629 11.85344499 -2.3788634 9.70776715 -2.0625 7.5625 C-1.88847656 6.36753906 -1.71445312 5.17257813 -1.53515625 3.94140625 C-1 1 -1 1 0 0 Z " fill="#257EA8" transform="translate(47,75)"/>
<path d="M0 0 C0.7734375 0.2165625 0.7734375 0.2165625 1.5625 0.4375 C4.17904334 1.0868822 4.17904334 1.0868822 7.625 1.4375 C11 2 11 2 13 4 C12.625 6.125 12.625 6.125 12 8 C7.13028826 7.58259614 5.27815116 5.45534852 2 2 C1.34 2 0.68 2 0 2 C0 1.34 0 0.68 0 0 Z " fill="#2888BD" transform="translate(138,79)"/>
<path d="M0 0 C-0.33 2.31 -0.66 4.62 -1 7 C-1.99 7 -2.98 7 -4 7 C-4.12375 6.195625 -4.2475 5.39125 -4.375 4.5625 C-4.684375 3.2940625 -4.684375 3.2940625 -5 2 C-5.66 1.67 -6.32 1.34 -7 1 C-3.375 -1.125 -3.375 -1.125 0 0 Z " fill="#2582BF" transform="translate(145,127)"/>
<path d="M0 0 C0.66 0.99 1.32 1.98 2 3 C2.928125 2.773125 3.85625 2.54625 4.8125 2.3125 C8 2 8 2 9.875 3.4375 C10.431875 4.2109375 10.431875 4.2109375 11 5 C10.34 5.66 9.68 6.32 9 7 C8.01 7 7.02 7 6 7 C6 6.34 6 5.68 6 5 C4.35 5.33 2.7 5.66 1 6 C0.34 5.01 -0.32 4.02 -1 3 C-0.67 2.01 -0.34 1.02 0 0 Z " fill="#2F8AC5" transform="translate(72,119)"/>
<path d="M0 0 C2.31 0 4.62 0 7 0 C7.33 0.99 7.66 1.98 8 3 C9.65 3 11.3 3 13 3 C13 3.66 13 4.32 13 5 C11.56163249 4.88541307 10.12429034 4.75790884 8.6875 4.625 C7.88699219 4.55539063 7.08648437 4.48578125 6.26171875 4.4140625 C4 4 4 4 1 2 C0.67 1.34 0.34 0.68 0 0 Z " fill="#2189C1" transform="translate(65,121)"/>
<path d="M0 0 C1 3 1 3 -0.5 6.0625 C-2.70434762 10.71058141 -1.82361986 15.06820397 -1 20 C-3 19 -3 19 -4 16 C-4.53434847 10.51265224 -4.43825346 6.53849457 -1 2 C-0.67 1.34 -0.34 0.68 0 0 Z " fill="#236C98" transform="translate(149,119)"/>
<path d="M0 0 C-0.33 1.32 -0.66 2.64 -1 4 C-2.3921875 3.7215625 -2.3921875 3.7215625 -3.8125 3.4375 C-7.01343771 2.75876119 -7.01343771 2.75876119 -10 4 C-9 1 -9 1 -7.25 -0.25 C-4.47275102 -1.17574966 -2.78428335 -0.77341204 0 0 Z " fill="#2781A1" transform="translate(152,67)"/>
<path d="M0 0 C3.74765815 1.33560158 6.6163817 2.9926468 9.75 5.4375 C10.52859375 6.03433594 11.3071875 6.63117187 12.109375 7.24609375 C14 9 14 9 15 12 C11.26445141 10.75481714 9.77378939 8.77378939 7 6 C5.00591923 4.65783025 3.00698975 3.3227887 1 2 C0.67 1.34 0.34 0.68 0 0 Z " fill="#276A91" transform="translate(124,52)"/>
<path d="M0 0 C5.28 0 10.56 0 16 0 C16 0.99 16 1.98 16 3 C10.72 2.34 5.44 1.68 0 1 C0 0.67 0 0.34 0 0 Z " fill="#2F7D9D" transform="translate(96,50)"/>
<path d="M0 0 C0.125 2.875 0.125 2.875 0 6 C-0.66 6.66 -1.32 7.32 -2 8 C-2 7.01 -2 6.02 -2 5 C-4.31 5.33 -6.62 5.66 -9 6 C-3.2 0 -3.2 0 0 0 Z " fill="#2574A6" transform="translate(90,112)"/>
<path d="M0 0 C0.99 0.33 1.98 0.66 3 1 C3.33 3.31 3.66 5.62 4 8 C0.125 7.125 0.125 7.125 -1 6 C-1.125 3.5 -1.125 3.5 -1 1 C-0.67 0.67 -0.34 0.34 0 0 Z " fill="#2485BA" transform="translate(46,113)"/>
<path d="M0 0 C0.66 0.33 1.32 0.66 2 1 C1.49396008 3.16874252 1.00016187 4.99967627 0 7 C-0.66 7 -1.32 7 -2 7 C-2 7.66 -2 8.32 -2 9 C-2.99 9.33 -3.98 9.66 -5 10 C-3.84414715 6.08788267 -2.64465038 3.1254959 0 0 Z " fill="#2579A2" transform="translate(53,65)"/>
<path d="M0 0 C3.63 0 7.26 0 11 0 C11 0.33 11 0.66 11 1 C9.35 1.33 7.7 1.66 6 2 C6.33 2.99 6.66 3.98 7 5 C5.02 5 3.04 5 1 5 C1.33 4.34 1.66 3.68 2 3 C1.34 2.67 0.68 2.34 0 2 C0 1.34 0 0.68 0 0 Z " fill="#2383AD" transform="translate(61,120)"/>
<path d="M0 0 C2.45706557 2.17181258 2.96315081 2.63887791 3.3125 6.0625 C3 9 3 9 1 11 C0 10 0 10 -0.09765625 7.71484375 C-0.08605469 6.79832031 -0.07445312 5.88179688 -0.0625 4.9375 C-0.05347656 4.01839844 -0.04445312 3.09929687 -0.03515625 2.15234375 C-0.02355469 1.44207031 -0.01195312 0.73179688 0 0 Z " fill="#227DB0" transform="translate(42,95)"/>
<path d="M0 0 C0.66 0 1.32 0 2 0 C2 4.29 2 8.58 2 13 C-1 10 -1 10 -1.07421875 7.51953125 C-0.94660156 6.62621094 -0.81898437 5.73289062 -0.6875 4.8125 C-0.56761719 3.91144531 -0.44773437 3.01039062 -0.32421875 2.08203125 C-0.21722656 1.39496094 -0.11023438 0.70789063 0 0 Z " fill="#28AF3D" transform="translate(112,79)"/>
<path d="M0 0 C0.99 0.33 1.98 0.66 3 1 C2.34 2.32 1.68 3.64 1 5 C-0.65 5 -2.3 5 -4 5 C-3 2 -3 2 0 0 Z " fill="#297FAA" transform="translate(131,85)"/>
<path d="M0 0 C3.3 0.33 6.6 0.66 10 1 C10 1.66 10 2.32 10 3 C8.72125 3.061875 7.4425 3.12375 6.125 3.1875 C5.40570313 3.22230469 4.68640625 3.25710937 3.9453125 3.29296875 C3.30335937 3.19628906 2.66140625 3.09960938 2 3 C1.34 2.01 0.68 1.02 0 0 Z " fill="#297897" transform="translate(84,149)"/>
<path d="M0 0 C0.66 0 1.32 0 2 0 C1.01 2.97 0.02 5.94 -1 9 C-1.66 9 -2.32 9 -3 9 C-3.33 9.66 -3.66 10.32 -4 11 C-3.49357808 6.64477147 -2.61588503 3.55760365 0 0 Z " fill="#2E77A1" transform="translate(52,76)"/>
<path d="M0 0 C0.66 0.33 1.32 0.66 2 1 C2 1.66 2 2.32 2 3 C1.34 3 0.68 3 0 3 C-0.433125 3.928125 -0.433125 3.928125 -0.875 4.875 C-2 7 -2 7 -4 9 C-4.33 8.34 -4.66 7.68 -5 7 C-3.88820837 3.66462511 -2.52588702 2.36292656 0 0 Z " fill="#2E73A7" transform="translate(58,67)"/>
<path d="M0 0 C2.31 0 4.62 0 7 0 C6.01 1.485 6.01 1.485 5 3 C1.875 3.1875 1.875 3.1875 -1 3 C-0.67 2.01 -0.34 1.02 0 0 Z " fill="#1C86B6" transform="translate(77,149)"/>
<path d="M0 0 C-6 4 -6 4 -10 4 C-10 3.34 -10 2.68 -10 2 C-6.5980513 -0.09350689 -3.94727588 -0.17942163 0 0 Z " fill="#3DA04E" transform="translate(99,66)"/>
<path d="M0 0 C0.99 0.33 1.98 0.66 3 1 C3.33 3.97 3.66 6.94 4 10 C1.04816899 7.04816899 0.91336012 4.04488053 0 0 Z " fill="#2E7AA5" transform="translate(141,137)"/>
<path d="M0 0 C2 1.8125 2 1.8125 4 4 C4 4.99 4 5.98 4 7 C3.34 7 2.68 7 2 7 C1.67 7.66 1.34 8.32 1 9 C0.67 6.03 0.34 3.06 0 0 Z " fill="#2687BC" transform="translate(144,137)"/>
<path d="M0 0 C0.66 0 1.32 0 2 0 C2 0.99 2 1.98 2 3 C2.66 3 3.32 3 4 3 C4 3.66 4 4.32 4 5 C3.34 5 2.68 5 2 5 C1.67 6.65 1.34 8.3 1 10 C0.34 9.67 -0.32 9.34 -1 9 C-0.835 8.071875 -0.67 7.14375 -0.5 6.1875 C0.07748388 3.04378647 0.07748388 3.04378647 0 0 Z " fill="#1982A8" transform="translate(79,131)"/>
<path d="M0 0 C0.66 0.33 1.32 0.66 2 1 C1.67 1.99 1.34 2.98 1 4 C1.99 4.99 2.98 5.98 4 7 C3.34 7.66 2.68 8.32 2 9 C0.68 7.02 -0.64 5.04 -2 3 C-1.34 2.01 -0.68 1.02 0 0 Z " fill="#217FB6" transform="translate(134,60)"/>
<path d="M0 0 C2.475 0.99 2.475 0.99 5 2 C4.67 2.66 4.34 3.32 4 4 C1.69 3.67 -0.62 3.34 -3 3 C-2.01 2.01 -1.02 1.02 0 0 Z " fill="#2789BD" transform="translate(83,150)"/>
<path d="M0 0 C1.65 0 3.3 0 5 0 C5 0.66 5 1.32 5 2 C5.66 2.33 6.32 2.66 7 3 C5.1875 3.6875 5.1875 3.6875 3 4 C1.25 2.625 1.25 2.625 0 1 C0 0.67 0 0.34 0 0 Z " fill="#2C89B8" transform="translate(139,149)"/>
<path d="M0 0 C1.32 0.33 2.64 0.66 4 1 C4 1.66 4 2.32 4 3 C4.66 3 5.32 3 6 3 C6 3.66 6 4.32 6 5 C5.01 5.33 4.02 5.66 3 6 C2.01 4.02 1.02 2.04 0 0 Z " fill="#277DA3" transform="translate(54,138)"/>
<path d="M0 0 C0.66 0.33 1.32 0.66 2 1 C0.25 3.0625 0.25 3.0625 -2 5 C-4.25 4.75 -4.25 4.75 -6 4 C-6 3.34 -6 2.68 -6 2 C-4.7934375 1.7834375 -4.7934375 1.7834375 -3.5625 1.5625 C-1.07896294 1.25864751 -1.07896294 1.25864751 0 0 Z " fill="#237596" transform="translate(79,118)"/>
<path d="" fill="#FFFFFF" transform="translate(0,0)"/>
<path d="" fill="#FFFFFF" transform="translate(0,0)"/>
<path d="" fill="#FFFFFF" transform="translate(0,0)"/>
<path d="" fill="#FFFFFF" transform="translate(0,0)"/>
<path d="" fill="#FFFFFF" transform="translate(0,0)"/>
<path d="" fill="#FFFFFF" transform="translate(0,0)"/>
<path d="" fill="#FFFFFF" transform="translate(0,0)"/>
<path d="" fill="#FFFFFF" transform="translate(0,0)"/>
<path d="" fill="#FFFFFF" transform="translate(0,0)"/>
<path d="" fill="#FFFFFF" transform="translate(0,0)"/>
<path d="" fill="#FFFFFF" transform="translate(0,0)"/>
<path d="" fill="#FFFFFF" transform="translate(0,0)"/>
<path d="" fill="#FFFFFF" transform="translate(0,0)"/>
<path d="" fill="#FFFFFF" transform="translate(0,0)"/>
<path d="" fill="#FFFFFF" transform="translate(0,0)"/>
<path d="" fill="#FFFFFF" transform="translate(0,0)"/>
<path d="" fill="#FFFFFF" transform="translate(0,0)"/>
<path d="" fill="#FFFFFF" transform="translate(0,0)"/>
<path d="" fill="#FFFFFF" transform="translate(0,0)"/>
<path d="" fill="#FFFFFF" transform="translate(0,0)"/>
<path d="" fill="#FFFFFF" transform="translate(0,0)"/>
<path d="" fill="#FFFFFF" transform="translate(0,0)"/>
<path d="" fill="#FFFFFF" transform="translate(0,0)"/>
<path d="" fill="#FFFFFF" transform="translate(0,0)"/>
<path d="" fill="#FFFFFF" transform="translate(0,0)"/>
<path d="" fill="#FFFFFF" transform="translate(0,0)"/>
<path d="" fill="#FFFFFF" transform="translate(0,0)"/>
<path d="" fill="#FFFFFF" transform="translate(0,0)"/>
<path d="" fill="#FFFFFF" transform="translate(0,0)"/>
<path d="" fill="#FFFFFF" transform="translate(0,0)"/>
<path d="" fill="#FFFFFF" transform="translate(0,0)"/>
<path d="" fill="#FFFFFF" transform="translate(0,0)"/>
<path d="" fill="#FFFFFF" transform="translate(0,0)"/>
<path d="" fill="#FFFFFF" transform="translate(0,0)"/>
<path d="" fill="#FFFFFF" transform="translate(0,0)"/>
<path d="" fill="#FFFFFF" transform="translate(0,0)"/>
<path d="" fill="#FFFFFF" transform="translate(0,0)"/>
<path d="" fill="#FFFFFF" transform="translate(0,0)"/>
<path d="" fill="#FFFFFF" transform="translate(0,0)"/>
<path d="" fill="#FFFFFF" transform="translate(0,0)"/>
<path d="" fill="#FFFFFF" transform="translate(0,0)"/>
<path d="" fill="#FFFFFF" transform="translate(0,0)"/>
<path d="" fill="#FFFFFF" transform="translate(0,0)"/>
<path d="" fill="#FFFFFF" transform="translate(0,0)"/>
<path d="" fill="#FFFFFF" transform="translate(0,0)"/>
<path d="" fill="#FFFFFF" transform="translate(0,0)"/>
<path d="" fill="#FFFFFF" transform="translate(0,0)"/>
<path d="" fill="#FFFFFF" transform="translate(0,0)"/>
<path d="" fill="#FFFFFF" transform="translate(0,0)"/>
<path d="" fill="#FFFFFF" transform="translate(0,0)"/>
<path d="" fill="#FFFFFF" transform="translate(0,0)"/>
<path d="" fill="#FFFFFF" transform="translate(0,0)"/>
<path d="" fill="#FFFFFF" transform="translate(0,0)"/>
<path d="" fill="#FFFFFF" transform="translate(0,0)"/>
<path d="" fill="#FFFFFF" transform="translate(0,0)"/>
<path d="" fill="#FFFFFF" transform="translate(0,0)"/>
<path d="" fill="#FFFFFF" transform="translate(0,0)"/>
<path d="" fill="#FFFFFF" transform="translate(0,0)"/>
<path d="" fill="#FFFFFF" transform="translate(0,0)"/>
<path d="" fill="#FFFFFF" transform="translate(0,0)"/>
<path d="" fill="#FFFFFF" transform="translate(0,0)"/>
<path d="" fill="#FFFFFF" transform="translate(0,0)"/>
<path d="" fill="#FFFFFF" transform="translate(0,0)"/>
<path d="" fill="#FFFFFF" transform="translate(0,0)"/>
<path d="" fill="#FFFFFF" transform="translate(0,0)"/>
<path d="" fill="#FFFFFF" transform="translate(0,0)"/>
<path d="" fill="#FFFFFF" transform="translate(0,0)"/>
<path d="" fill="#FFFFFF" transform="translate(0,0)"/>
</svg>